<?xml version="1.0" encoding="UTF-8"?>
<svg id="Layer_2" data-name="Layer 2" xmlns="http://www.w3.org/2000/svg" viewBox="0 0 716.02 296.28">
  <defs>
    <style>
      .cls-1 {
        fill: #8cb5ba;
        stroke-width: 0px;
      }
    </style>
  </defs>
  <g id="Layer_1-2" data-name="Layer 1">
    <g id="Layer_1-2" data-name="Layer 1-2">
      <path class="cls-1" d="M50.98,90.04c0,2.46-.44,4.9-1.32,7.33-.88,2.43-2.27,4.63-4.16,6.62-1.89,1.99-4.34,3.58-7.33,4.78-3,1.2-6.64,1.8-10.93,1.8h-14.47v25.25H0v-66.21h27.24c5.36,0,9.79.93,13.29,2.79,3.5,1.86,6.12,4.35,7.85,7.47,1.73,3.12,2.6,6.51,2.6,10.17ZM26.86,99.87c2.52,0,4.6-.39,6.24-1.18,1.64-.79,2.85-1.92,3.64-3.41.79-1.48,1.18-3.23,1.18-5.25,0-3.09-.9-5.49-2.7-7.19-1.8-1.7-4.59-2.55-8.37-2.55h-14.09v19.58h14.09Z"/>
      <path class="cls-1" d="M62.75,120.4c.38,1.58,1.02,2.78,1.94,3.59.91.82,1.95,1.4,3.12,1.75,1.17.35,2.35.52,3.55.52,2.21,0,3.94-.43,5.2-1.28,1.26-.85,1.89-1.94,1.89-3.26,0-1.14-.44-2.03-1.32-2.7-.88-.66-2-1.18-3.36-1.56-1.36-.38-2.79-.72-4.3-1.04-1.7-.44-3.52-.93-5.44-1.47-1.92-.53-3.74-1.31-5.44-2.32-1.7-1.01-3.11-2.32-4.21-3.93-1.1-1.61-1.66-3.64-1.66-6.1,0-2.96.79-5.53,2.36-7.71,1.58-2.18,3.8-3.89,6.67-5.16,2.87-1.26,6.2-1.89,9.98-1.89,4.48,0,8.26.95,11.35,2.84,3.09,1.89,5.33,4.6,6.72,8.13l-10.59,3.03c-.38-.88-.95-1.61-1.7-2.18-.76-.57-1.66-.98-2.7-1.23-1.04-.25-2.1-.38-3.17-.38-1.83,0-3.34.36-4.54,1.09-1.2.73-1.8,1.72-1.8,2.98,0,.76.22,1.37.66,1.84.44.47,1.06.87,1.84,1.18.79.32,1.7.6,2.74.85,1.04.25,2.19.54,3.45.85,1.95.51,3.93,1.09,5.91,1.75s3.81,1.5,5.49,2.51c1.67,1.01,3.01,2.37,4.02,4.07,1.01,1.7,1.58,3.85,1.7,6.43,0,2.78-.79,5.28-2.36,7.52-1.58,2.24-3.85,4.02-6.81,5.34-2.96,1.32-6.56,1.99-10.78,1.99-4.92,0-9.1-1.04-12.53-3.12-3.44-2.08-5.69-5.33-6.76-9.74l10.88-3.22h0Z"/>
      <path class="cls-1" d="M129.06,88.52h12.96l-27.9,66.21h-12.2l8.89-20.62-18.63-45.59h13.53l11.54,31.12,11.82-31.12h0Z"/>
      <path class="cls-1" d="M163.92,136.48c-4.6,0-8.64-1.01-12.11-3.03-3.47-2.02-6.18-4.84-8.13-8.47-1.96-3.63-2.93-7.83-2.93-12.63s.99-9.11,2.98-12.77c1.99-3.66,4.73-6.53,8.23-8.61,3.5-2.08,7.55-3.12,12.15-3.12,4.98,0,9.4,1.23,13.24,3.69,3.85,2.46,6.59,5.77,8.23,9.93l-11.16,3.22c-.82-1.83-2.1-3.28-3.83-4.35-1.74-1.07-3.7-1.61-5.91-1.61s-4.15.57-5.82,1.7c-1.67,1.14-2.96,2.71-3.88,4.73-.91,2.02-1.37,4.38-1.37,7.09,0,4.1,1.01,7.35,3.03,9.74,2.02,2.4,4.73,3.59,8.13,3.59,2.14,0,4.1-.52,5.86-1.56,1.76-1.04,3.09-2.47,3.97-4.3l11.16,3.22c-1.7,4.1-4.53,7.38-8.47,9.84-3.94,2.46-8.4,3.69-13.38,3.69h0Z"/>
      <path class="cls-1" d="M191.49,67.71h12.11v25.44c1.45-1.58,3.26-2.85,5.44-3.83,2.18-.98,4.62-1.47,7.33-1.47,3.59,0,6.72.79,9.36,2.36,2.65,1.58,4.71,3.86,6.19,6.86,1.48,3,2.22,6.7,2.22,11.11v27.62h-12.77v-26.01c0-3.66-.73-6.4-2.18-8.23-1.45-1.83-3.63-2.74-6.53-2.74s-5.22.99-6.76,2.98c-1.55,1.99-2.32,4.81-2.32,8.47v25.54h-12.11v-68.1h0Z"/>
      <path class="cls-1" d="M263.75,136.48c-4.6,0-8.7-.99-12.3-2.98-3.59-1.99-6.42-4.79-8.47-8.42-2.05-3.63-3.07-7.9-3.07-12.82s1.06-9.3,3.17-12.96c2.11-3.66,5-6.48,8.65-8.47,3.66-1.99,7.76-2.98,12.3-2.98s8.64.99,12.3,2.98c3.66,1.99,6.56,4.79,8.7,8.42,2.14,3.63,3.22,7.9,3.22,12.82s-1.09,9.3-3.26,12.96c-2.18,3.66-5.11,6.48-8.8,8.47-3.69,1.99-7.84,2.98-12.44,2.98ZM263.66,125.6c1.95,0,3.81-.49,5.58-1.47,1.76-.98,3.22-2.46,4.35-4.45s1.7-4.52,1.7-7.61-.54-5.44-1.61-7.43c-1.07-1.99-2.48-3.47-4.21-4.45-1.74-.98-3.61-1.47-5.63-1.47s-3.77.49-5.44,1.47c-1.67.98-3.01,2.46-4.02,4.45-1.01,1.99-1.51,4.53-1.51,7.61s.49,5.44,1.47,7.43c.98,1.99,2.28,3.47,3.92,4.45,1.64.98,3.44,1.47,5.39,1.47h0Z"/>
      <path class="cls-1" d="M293.6,67.71h12.11v68.1h-12.11v-68.1Z"/>
      <path class="cls-1" d="M335.74,136.48c-4.6,0-8.7-.99-12.3-2.98-3.59-1.99-6.42-4.79-8.47-8.42-2.05-3.63-3.07-7.9-3.07-12.82s1.06-9.3,3.17-12.96c2.11-3.66,5-6.48,8.65-8.47,3.66-1.99,7.76-2.98,12.3-2.98s8.64.99,12.3,2.98c3.66,1.99,6.56,4.79,8.7,8.42,2.14,3.63,3.22,7.9,3.22,12.82s-1.09,9.3-3.26,12.96c-2.18,3.66-5.11,6.48-8.8,8.47-3.69,1.99-7.84,2.98-12.44,2.98ZM335.64,125.6c1.95,0,3.81-.49,5.58-1.47,1.76-.98,3.22-2.46,4.35-4.45s1.7-4.52,1.7-7.61-.54-5.44-1.61-7.43c-1.07-1.99-2.48-3.47-4.21-4.45-1.74-.98-3.61-1.47-5.63-1.47s-3.77.49-5.44,1.47c-1.67.98-3.01,2.46-4.02,4.45-1.01,1.99-1.51,4.53-1.51,7.61s.49,5.44,1.47,7.43c.98,1.99,2.28,3.47,3.92,4.45,1.64.98,3.44,1.47,5.39,1.47h0Z"/>
      <path class="cls-1" d="M401.43,88.52h10.97v40.29c0,5.36-1.32,9.98-3.97,13.86-2.65,3.88-5.06,6.86-10.07,8.94-5.01,2.08-11.02,3.12-18.02,3.12l-3.31-10.22c7.63-.13,13.42-1.48,17.36-4.07,3.94-2.59,5.91-6.3,5.91-11.16v-.19l1.61-.57c-1.51,2.21-3.59,4.08-6.24,5.63-2.65,1.55-5.8,2.32-9.46,2.32-4.16,0-7.82-1.01-10.97-3.03-3.15-2.02-5.63-4.84-7.42-8.47-1.8-3.63-2.7-7.9-2.7-12.82s.9-9.21,2.7-12.86c1.8-3.66,4.27-6.48,7.42-8.47,3.15-1.99,6.81-2.98,10.97-2.98,2.14,0,4.15.3,6.01.9,1.86.6,3.5,1.39,4.92,2.36,1.42.98,2.6,2.07,3.55,3.26l.76-5.86h0ZM378.07,112.17c0,3.97,1.02,7.17,3.07,9.6,2.05,2.43,4.78,3.64,8.18,3.64,1.95,0,3.75-.52,5.39-1.56,1.64-1.04,2.98-2.57,4.02-4.59,1.04-2.02,1.56-4.38,1.56-7.09s-.52-5.23-1.56-7.19c-1.04-1.95-2.4-3.45-4.07-4.49-1.67-1.04-3.45-1.56-5.34-1.56-3.4,0-6.13,1.21-8.18,3.64-2.05,2.43-3.07,5.63-3.07,9.6h0Z"/>
      <path class="cls-1" d="M428.01,82.47c-2.27,0-4.13-.72-5.58-2.18-1.45-1.45-2.18-3.18-2.18-5.2s.72-3.83,2.18-5.25c1.45-1.42,3.31-2.13,5.58-2.13,2.14,0,3.96.71,5.44,2.13,1.48,1.42,2.22,3.17,2.22,5.25s-.74,3.75-2.22,5.2c-1.48,1.45-3.3,2.18-5.44,2.18ZM421.86,88.52h12.11v47.29h-12.11v-47.29Z"/>
      <path class="cls-1" d="M464.47,136.48c-4.6,0-8.64-1.01-12.11-3.03-3.47-2.02-6.18-4.84-8.13-8.47-1.96-3.63-2.93-7.83-2.93-12.63s.99-9.11,2.98-12.77c1.99-3.66,4.73-6.53,8.23-8.61,3.5-2.08,7.55-3.12,12.15-3.12,4.98,0,9.4,1.23,13.24,3.69,3.85,2.46,6.59,5.77,8.23,9.93l-11.16,3.22c-.82-1.83-2.1-3.28-3.83-4.35-1.74-1.07-3.7-1.61-5.91-1.61s-4.15.57-5.82,1.7c-1.67,1.14-2.96,2.71-3.88,4.73-.91,2.02-1.37,4.38-1.37,7.09,0,4.1,1.01,7.35,3.03,9.74,2.02,2.4,4.73,3.59,8.13,3.59,2.14,0,4.1-.52,5.86-1.56,1.76-1.04,3.09-2.47,3.97-4.3l11.16,3.22c-1.7,4.1-4.53,7.38-8.47,9.84-3.94,2.46-8.4,3.69-13.38,3.69h0Z"/>
      <path class="cls-1" d="M521.27,135.82l-.95-5.77c-1.58,1.96-3.36,3.5-5.34,4.63-1.99,1.14-4.65,1.7-7.99,1.7-3.15,0-5.91-.55-8.28-1.66-2.36-1.1-4.21-2.65-5.53-4.63-1.32-1.99-1.99-4.33-1.99-7.05,0-3.97,1.43-7.27,4.3-9.88,2.87-2.62,7.2-4.27,13.01-4.97l11.82-1.32v-3.31c0-1.32-.6-2.55-1.8-3.69-1.2-1.14-3.09-1.7-5.68-1.7-2.27,0-4.24.55-5.91,1.66-1.67,1.1-2.79,2.76-3.36,4.97l-10.4-3.78c1.26-4.22,3.66-7.47,7.19-9.74,3.53-2.27,7.88-3.41,13.05-3.41,6.3,0,11.05,1.56,14.24,4.68,3.18,3.12,4.78,7.24,4.78,12.34v30.93h-11.16ZM520.33,115.29l-10.21,1.32c-2.08.25-3.66.87-4.73,1.84-1.07.98-1.61,2.16-1.61,3.55s.53,2.44,1.61,3.36c1.07.91,2.59,1.37,4.54,1.37,2.21,0,4.08-.41,5.63-1.23,1.54-.82,2.73-2.02,3.55-3.59.82-1.58,1.23-3.53,1.23-5.86v-.76h0Z"/>
      <path class="cls-1" d="M541.61,67.71h12.11v68.1h-12.11v-68.1Z"/>
      <path class="cls-1" d="M159.38,182.61c0-4.98.84-9.54,2.51-13.67,1.67-4.13,4.02-7.69,7.05-10.69,3.03-2.99,6.57-5.31,10.64-6.95,4.07-1.64,8.47-2.46,13.2-2.46,6.81,0,12.85,1.62,18.11,4.87,5.26,3.25,9.22,7.9,11.87,13.95l-10.69,3.12c-1.39-2.65-3.11-4.79-5.16-6.43-2.05-1.64-4.27-2.84-6.67-3.59-2.4-.76-4.82-1.14-7.28-1.14-4.04,0-7.63.96-10.78,2.88-3.15,1.92-5.6,4.62-7.33,8.09-1.73,3.47-2.6,7.47-2.6,12.01s.87,8.53,2.6,11.97c1.73,3.44,4.18,6.13,7.33,8.09,3.15,1.96,6.75,2.93,10.78,2.93,2.52,0,5.03-.39,7.52-1.18,2.49-.79,4.81-2.13,6.95-4.02,2.14-1.89,3.97-4.41,5.49-7.57l10.5,2.93c-2.71,6.87-6.75,12.03-12.11,15.46-5.36,3.44-11.54,5.16-18.54,5.16-4.73,0-9.13-.82-13.2-2.46-4.07-1.64-7.61-3.97-10.64-7-3.03-3.03-5.38-6.6-7.05-10.74-1.67-4.13-2.51-8.65-2.51-13.57Z"/>
      <path class="cls-1" d="M250.51,216.38c-4.6,0-8.7-.99-12.3-2.98-3.59-1.99-6.42-4.79-8.47-8.42-2.05-3.63-3.07-7.9-3.07-12.82s1.06-9.3,3.17-12.96c2.11-3.66,5-6.48,8.65-8.47,3.66-1.99,7.76-2.98,12.3-2.98s8.64.99,12.3,2.98c3.66,1.99,6.56,4.79,8.7,8.42,2.14,3.63,3.22,7.9,3.22,12.82s-1.09,9.3-3.26,12.96c-2.18,3.66-5.11,6.48-8.8,8.47-3.69,1.99-7.84,2.98-12.44,2.98h0ZM250.42,205.5c1.95,0,3.81-.49,5.58-1.47,1.76-.98,3.22-2.46,4.35-4.45,1.14-1.99,1.7-4.52,1.7-7.61s-.54-5.44-1.61-7.42c-1.07-1.99-2.48-3.47-4.21-4.45-1.74-.98-3.61-1.47-5.63-1.47s-3.77.49-5.44,1.47c-1.67.98-3.01,2.46-4.02,4.45-1.01,1.99-1.51,4.53-1.51,7.61s.49,5.44,1.47,7.42c.98,1.99,2.28,3.47,3.93,4.45,1.64.98,3.44,1.47,5.39,1.47h0Z"/>
      <path class="cls-1" d="M280.36,168.42h10.97l.85,4.82c1.51-1.7,3.36-3.04,5.53-4.02,2.18-.98,4.52-1.47,7.05-1.47,3.72,0,6.89.79,9.51,2.36,2.62,1.58,4.63,3.86,6.05,6.86,1.42,3,2.13,6.7,2.13,11.11v27.62h-12.2v-26.01c0-3.66-.73-6.4-2.18-8.23-1.45-1.83-3.63-2.74-6.53-2.74s-5.22.93-6.76,2.79c-1.55,1.86-2.32,4.62-2.32,8.28v25.92h-12.11v-47.29h0Z"/>
      <path class="cls-1" d="M338.62,200.3c.38,1.58,1.02,2.77,1.94,3.59.91.82,1.95,1.4,3.12,1.75,1.17.35,2.35.52,3.55.52,2.21,0,3.94-.43,5.2-1.28,1.26-.85,1.89-1.94,1.89-3.26,0-1.14-.44-2.03-1.32-2.7-.88-.66-2-1.18-3.36-1.56-1.36-.38-2.79-.72-4.3-1.04-1.7-.44-3.52-.93-5.44-1.47-1.92-.53-3.74-1.31-5.44-2.32-1.7-1.01-3.11-2.32-4.21-3.92-1.1-1.61-1.66-3.64-1.66-6.1,0-2.96.79-5.53,2.36-7.71,1.58-2.18,3.8-3.89,6.67-5.16,2.87-1.26,6.2-1.89,9.98-1.89,4.48,0,8.26.95,11.35,2.84,3.09,1.89,5.33,4.6,6.72,8.13l-10.59,3.03c-.38-.88-.95-1.61-1.7-2.18-.76-.57-1.66-.98-2.7-1.23-1.04-.25-2.1-.38-3.17-.38-1.83,0-3.34.36-4.54,1.09-1.2.73-1.8,1.72-1.8,2.98,0,.76.22,1.37.66,1.84.44.47,1.06.87,1.84,1.18.79.32,1.7.6,2.74.85,1.04.25,2.19.54,3.45.85,1.95.51,3.93,1.09,5.91,1.75,1.99.66,3.81,1.5,5.49,2.51,1.67,1.01,3.01,2.36,4.02,4.07,1.01,1.7,1.58,3.85,1.7,6.43,0,2.77-.79,5.28-2.36,7.52-1.58,2.24-3.85,4.02-6.81,5.34-2.96,1.32-6.56,1.99-10.78,1.99-4.92,0-9.1-1.04-12.53-3.12-3.44-2.08-5.69-5.33-6.76-9.74l10.88-3.22h0Z"/>
      <path class="cls-1" d="M414.01,215.72h-11.07l-.76-4.92c-1.58,1.77-3.45,3.14-5.63,4.11-2.17.98-4.49,1.47-6.95,1.47-3.66,0-6.81-.79-9.46-2.36-2.65-1.58-4.7-3.86-6.15-6.86-1.45-2.99-2.18-6.7-2.18-11.11v-27.62h12.2v26.11c0,3.59.71,6.32,2.13,8.18,1.42,1.86,3.61,2.79,6.57,2.79s5.23-.95,6.81-2.84c1.58-1.89,2.36-4.63,2.36-8.23v-26.01h12.11v47.29h0Z"/>
      <path class="cls-1" d="M421.86,147.62h12.11v68.1h-12.11v-68.1Z"/>
      <path class="cls-1" d="M445.93,168.42v-13.24h12.2v13.24h10.5v10.69h-10.5v19.2c0,2.46.53,4.19,1.61,5.2,1.07,1.01,2.41,1.55,4.02,1.61,1.61.06,3.23-.03,4.87-.28v10.4c-2.9.63-5.72.82-8.47.57-2.74-.25-5.19-.99-7.33-2.22-2.14-1.23-3.83-3.1-5.06-5.63-1.23-2.52-1.84-5.74-1.84-9.65v-19.2h-6.72v-10.69h6.72Z"/>
      <path class="cls-1" d="M503.63,215.72l-.95-5.77c-1.58,1.96-3.36,3.5-5.34,4.63-1.99,1.14-4.65,1.7-7.99,1.7-3.15,0-5.91-.55-8.28-1.66-2.36-1.1-4.21-2.65-5.53-4.63-1.32-1.99-1.99-4.33-1.99-7.05,0-3.97,1.43-7.27,4.3-9.88,2.87-2.62,7.2-4.27,13.01-4.97l11.82-1.32v-3.31c0-1.32-.6-2.55-1.8-3.69-1.2-1.14-3.09-1.7-5.68-1.7-2.27,0-4.24.55-5.91,1.66-1.67,1.1-2.79,2.76-3.36,4.97l-10.4-3.78c1.26-4.22,3.66-7.47,7.19-9.74,3.53-2.27,7.88-3.41,13.05-3.41,6.3,0,11.05,1.56,14.24,4.68,3.18,3.12,4.78,7.24,4.78,12.34v30.93h-11.16ZM502.69,195.19l-10.21,1.32c-2.08.25-3.66.87-4.73,1.84-1.07.98-1.61,2.16-1.61,3.55s.53,2.44,1.61,3.36c1.07.92,2.59,1.37,4.54,1.37,2.21,0,4.08-.41,5.63-1.23,1.54-.82,2.73-2.02,3.55-3.59.82-1.58,1.23-3.53,1.23-5.86v-.76h0Z"/>
      <path class="cls-1" d="M525.48,168.42v-13.24h12.2v13.24h10.5v10.69h-10.5v19.2c0,2.46.53,4.19,1.61,5.2,1.07,1.01,2.41,1.55,4.02,1.61,1.61.06,3.23-.03,4.87-.28v10.4c-2.9.63-5.72.82-8.47.57-2.74-.25-5.19-.99-7.33-2.22-2.14-1.23-3.83-3.1-5.06-5.63-1.23-2.52-1.84-5.74-1.84-9.65v-19.2h-6.72v-10.69h6.72Z"/>
      <path class="cls-1" d="M562.42,162.37c-2.27,0-4.13-.72-5.58-2.18-1.45-1.45-2.18-3.18-2.18-5.2s.72-3.83,2.18-5.25c1.45-1.42,3.31-2.13,5.58-2.13,2.14,0,3.96.71,5.44,2.13,1.48,1.42,2.22,3.17,2.22,5.25s-.74,3.75-2.22,5.2c-1.48,1.45-3.3,2.18-5.44,2.18ZM556.27,168.42h12.11v47.29h-12.11v-47.29Z"/>
      <path class="cls-1" d="M598.84,216.38c-4.6,0-8.7-.99-12.3-2.98-3.59-1.99-6.42-4.79-8.47-8.42-2.05-3.63-3.07-7.9-3.07-12.82s1.06-9.3,3.17-12.96c2.11-3.66,5-6.48,8.65-8.47,3.66-1.99,7.76-2.98,12.3-2.98s8.64.99,12.3,2.98c3.66,1.99,6.56,4.79,8.7,8.42,2.14,3.63,3.22,7.9,3.22,12.82s-1.09,9.3-3.26,12.96c-2.18,3.66-5.11,6.48-8.8,8.47s-7.84,2.98-12.44,2.98h0ZM598.74,205.5c1.95,0,3.81-.49,5.58-1.47,1.76-.98,3.22-2.46,4.35-4.45,1.14-1.99,1.7-4.52,1.7-7.61s-.54-5.44-1.61-7.42c-1.07-1.99-2.48-3.47-4.21-4.45-1.74-.98-3.61-1.47-5.63-1.47s-3.77.49-5.44,1.47c-1.67.98-3.01,2.46-4.02,4.45-1.01,1.99-1.51,4.53-1.51,7.61s.49,5.44,1.47,7.42c.98,1.99,2.28,3.47,3.92,4.45,1.64.98,3.44,1.47,5.39,1.47h0Z"/>
      <path class="cls-1" d="M628.44,168.42h10.97l.85,4.82c1.51-1.7,3.36-3.04,5.53-4.02,2.17-.98,4.52-1.47,7.05-1.47,3.72,0,6.89.79,9.51,2.36,2.62,1.58,4.63,3.86,6.05,6.86,1.42,3,2.13,6.7,2.13,11.11v27.62h-12.2v-26.01c0-3.66-.73-6.4-2.18-8.23-1.45-1.83-3.63-2.74-6.53-2.74s-5.22.93-6.76,2.79c-1.55,1.86-2.32,4.62-2.32,8.28v25.92h-12.11v-47.29h0Z"/>
      <path class="cls-1" d="M687.18,200.3c.38,1.58,1.02,2.77,1.94,3.59.91.82,1.95,1.4,3.12,1.75,1.17.35,2.35.52,3.55.52,2.21,0,3.94-.43,5.2-1.28,1.26-.85,1.89-1.94,1.89-3.26,0-1.14-.44-2.03-1.32-2.7-.88-.66-2-1.18-3.36-1.56-1.36-.38-2.79-.72-4.3-1.04-1.7-.44-3.52-.93-5.44-1.47-1.92-.53-3.74-1.31-5.44-2.32-1.7-1.01-3.11-2.32-4.21-3.92-1.1-1.61-1.66-3.64-1.66-6.1,0-2.96.79-5.53,2.36-7.71,1.58-2.18,3.8-3.89,6.67-5.16,2.87-1.26,6.2-1.89,9.98-1.89,4.48,0,8.26.95,11.35,2.84,3.09,1.89,5.33,4.6,6.72,8.13l-10.59,3.03c-.38-.88-.95-1.61-1.7-2.18s-1.66-.98-2.7-1.23c-1.04-.25-2.1-.38-3.17-.38-1.83,0-3.34.36-4.54,1.09-1.2.73-1.8,1.72-1.8,2.98,0,.76.22,1.37.66,1.84.44.47,1.06.87,1.84,1.18.79.32,1.7.6,2.74.85,1.04.25,2.19.54,3.45.85,1.95.51,3.93,1.09,5.91,1.75,1.99.66,3.81,1.5,5.49,2.51,1.67,1.01,3.01,2.36,4.02,4.07,1.01,1.7,1.58,3.85,1.7,6.43,0,2.77-.79,5.28-2.36,7.52-1.58,2.24-3.85,4.02-6.81,5.34-2.96,1.32-6.56,1.99-10.78,1.99-4.92,0-9.1-1.04-12.53-3.12-3.44-2.08-5.69-5.33-6.76-9.74l10.88-3.22h0Z"/>
      <path class="cls-1" d="M434.62,229.45v55.49h29.4v10.68h-42.16v-66.17h12.76Z"/>
      <path class="cls-1" d="M465.96,248.35v-13.23h12.19v13.23h10.49v10.68h-10.49v19.19c0,2.46.54,4.19,1.61,5.2,1.07,1.01,2.41,1.54,4.02,1.61s3.23-.03,4.87-.28v10.4c-2.9.63-5.72.82-8.46.57-2.74-.25-5.18-.99-7.33-2.22-2.14-1.23-3.83-3.1-5.06-5.62-1.23-2.52-1.84-5.73-1.84-9.64v-19.19h-6.71v-10.68h6.71,0Z"/>
      <path class="cls-1" d="M528.08,255.44l-1.51.19v-28.08h12.1v68.06h-10.97l-.76-5.86c-1.51,1.77-3.51,3.29-6,4.58-2.49,1.29-5.37,1.94-8.65,1.94-4.1,0-7.72-1.01-10.87-3.03-3.15-2.02-5.61-4.84-7.37-8.46-1.77-3.62-2.65-7.89-2.65-12.81s.88-9.2,2.65-12.86c1.76-3.65,4.22-6.48,7.37-8.46,3.15-1.98,6.77-2.98,10.87-2.98,3.72,0,6.92.76,9.6,2.27,2.68,1.51,4.74,3.34,6.19,5.48h0ZM504.35,271.99c0,3.97,1.02,7.17,3.07,9.6,2.05,2.43,4.71,3.64,7.99,3.64,2.02,0,3.86-.52,5.53-1.56,1.67-1.04,3.03-2.54,4.07-4.49,1.04-1.95,1.56-4.35,1.56-7.18s-.52-5.23-1.56-7.18c-1.04-1.95-2.4-3.45-4.07-4.49-1.67-1.04-3.51-1.56-5.53-1.56-3.28,0-5.94,1.21-7.99,3.64-2.05,2.43-3.07,5.62-3.07,9.59h0Z"/>
    </g>
    <path class="cls-1" d="M716.02,44.42c0-2.6-2.11-4.71-4.71-4.71h-7.61c-.31,0-.62.03-.92.09v-8.62c0-2.6-2.11-4.71-4.71-4.71h-8.62c.06-.3.09-.6.09-.92v-7.61c0-2.6-2.11-4.71-4.71-4.71h-7.61c-.5,0-.92-.42-.92-.92v-7.61c0-2.6-2.11-4.71-4.71-4.71h-20.85c-1.06,0-2.03.37-2.82.96-.79-.59-1.76-.96-2.82-.96h-20.85c-1.06,0-2.02.36-2.81.95-.79-.59-1.75-.95-2.81-.95h-7.61c-2.6,0-4.71,2.12-4.71,4.71v7.61c0,.5-.42.92-.92.92h-7.61c-1.06,0-2.03.36-2.82.96-.79-.59-1.76-.96-2.82-.96h-7.58c-2.6,0-4.71,2.11-4.71,4.71v7.61c0,.5-.42.92-.92.92h-7.63c-2.6,0-4.71,2.11-4.71,4.71v7.61c0,.31.03.62.09.91h-8.61c-2.6,0-4.71,2.12-4.71,4.71v7.61c0,2.6,2.11,4.71,4.71,4.71h8.61c-.06.3-.09.6-.09.92v20.84c0,2.6,2.11,4.71,4.71,4.71h21.85c-.06.3-.09.6-.09.91v7.61c0,2.6,2.11,4.71,4.71,4.71h34.08c.36,0,.7-.05,1.03-.12-.08.33-.12.68-.12,1.04v7.61c0,2.6,2.11,4.71,4.71,4.71h7.61c.5,0,.92.42.92.92v7.61c0,1.06.36,2.03.96,2.82-.59.79-.96,1.76-.96,2.82v7.61c0,2.6,2.11,4.71,4.71,4.71h20.85c2.6,0,4.71-2.11,4.71-4.71v-20.86c0-.31-.03-.61-.09-.91h8.62c1.06,0,2.03-.36,2.81-.96.79.59,1.76.96,2.81.96h7.61c2.6,0,4.71-2.11,4.71-4.71v-7.61c0-.5.42-.92.92-.92h7.61c2.6,0,4.71-2.11,4.71-4.71v-7.61c0-1.06-.36-2.02-.95-2.81.59-.79.96-1.76.96-2.82v-34.08ZM703.7,43.51h7.61c.5,0,.92.41.92.92v34.08c0,.5-.41.92-.92.92h-20.85c-.5,0-.92-.41-.92-.92v-7.61c0-.5.41-.91.92-.91h7.61c2.6,0,4.71-2.12,4.71-4.71v-20.84c0-.5.41-.92.92-.92ZM698.98,31.19v34.08c0,.5-.41.92-.92.92h-20.85c-.49,0-.89-.39-.91-.88v-7.67c.02-.49.42-.88.91-.88h7.62c2.6,0,4.71-2.11,4.71-4.71v-7.61c0-2.6-2.11-4.71-4.71-4.71h-7.62c-.5,0-.92-.41-.92-.91v-7.61c0-.5.42-.91.92-.91h20.85c.5,0,.92.41.92.91ZM636.6,91.74v-7.61c0-2.6-2.11-4.71-4.71-4.71h-7.61c-.5,0-.92-.42-.92-.92v-20.84c0-.5.42-.92.92-.92h7.61c.48,0,.88.39.91.87v7.66c0,2.6,2.11,4.71,4.71,4.71h7.61s0,0,.01,0c.49,0,.91.42.91.91v7.61c0,2.6,2.11,4.71,4.71,4.71h7.61c.5,0,.92.42.92.91v7.61c0,.5-.42.91-.92.91h-20.85c-.5,0-.92-.42-.92-.91ZM605.42,52.95h-7.61c-.5,0-.92-.42-.92-.91v-7.61s0-.03,0-.05c.03-.47.43-.86.9-.86h20.85c2.6,0,4.71-2.11,4.71-4.71v-7.61c0-.5.42-.91.92-.91h7.61c.5,0,.92.42.92.91v21.76h-27.37ZM650.75,66.18c-.5,0-.92-.41-.92-.92v-7.61c0-.5.41-.92.92-.92h7.61c.5,0,.92.41.92.92v7.61c0,.5-.41.92-.92.92h-7.61ZM637.5,30.27h7.61c.5,0,.92.42.92.91v7.61c0,.98.3,1.89.81,2.64.85,1.26,2.28,2.09,3.91,2.09h7.61c.5,0,.92.42.92.92v7.58c0,.5-.42.91-.92.91h-7.61c-2.6,0-4.71,2.12-4.71,4.71h0v7.62h0c0,.5-.41.91-.91.92,0,0,0,0,0,0h-7.61c-.5,0-.92-.42-.92-.92v-7.61s0-.06,0-.1v-26.38c0-.49.41-.9.9-.91,0,0,0,0,0,0ZM663.08,91.74v-7.61c0-2.6-2.11-4.71-4.71-4.71h-7.61c-.5,0-.92-.42-.92-.92v-7.61c0-.5.41-.91.92-.91h7.61c2.6,0,4.71-2.12,4.71-4.71v-20.84c0-.5.41-.92.92-.92h7.61c.5,0,.92.41.92.92v13.17s0,.04,0,.06v7.61s0,.04,0,.06v5.39c0,.06-.02.12-.02.18v20.85s0,.04,0,.06c-.03.47-.42.86-.9.86h-7.61c-.5,0-.92-.41-.92-.91ZM685.75,44.42v7.61c0,.5-.41.91-.92.91h-7.6c-.5,0-.92-.41-.92-.91v-7.61c0-.5.41-.92.92-.92h7.6c.5,0,.92.41.92.92ZM649.83,4.71c0-.5.42-.92.92-.92h20.85c.5,0,.92.42.92.92v7.61c0,2.6,2.11,4.71,4.71,4.71h7.61c.5,0,.92.42.92.91v7.61c0,.5-.42.92-.92.92h-7.61c-2.6,0-4.71,2.11-4.71,4.71v7.61c0,.5-.42.91-.92.91h-7.61c-.5,0-.92-.42-.92-.91v-20.85c0-2.6-2.11-4.71-4.71-4.71h-7.61c-.5,0-.92-.42-.92-.92v-7.61ZM624.26,3.8h20.85c.5,0,.92.42.92.92v7.61c0,2.6,2.11,4.71,4.71,4.71h7.61c.5,0,.92.42.92.91v20.85c0,.5-.42.91-.92.91h-7.61c-.25,0-.48-.1-.64-.27-.16-.17-.26-.39-.26-.63v-7.63c0-2.6-2.11-4.71-4.71-4.71h-7.61s-.01,0-.02,0c-.48,0-.89-.41-.9-.89,0,0,0-.01,0-.02v-7.61c0-2.6-2.11-4.71-4.71-4.71h-7.61c-.5,0-.92-.42-.92-.92v-7.61s0-.01,0-.02c.01-.49.42-.89.91-.89ZM596.88,17.95c0-.5.42-.91.92-.91h7.61c2.6,0,4.71-2.12,4.71-4.71v-7.61c0-.5.42-.92.92-.92h7.61c.49,0,.9.41.91.89,0,0,0,.01,0,.02v7.61c0,2.6,2.11,4.71,4.71,4.71h7.61c.5,0,.92.42.92.91v7.61s0,.01,0,.02c-.01.49-.42.89-.91.89h-7.61c-2.6,0-4.71,2.11-4.71,4.71v7.61c0,.5-.42.91-.92.91h-7.61c-.48,0-.89-.4-.91-.88,0-.01,0-.02,0-.04v-7.61c0-2.6-2.11-4.71-4.71-4.71h-7.62c-.5,0-.92-.42-.92-.92v-7.61ZM570.41,38.8v-7.61c0-.5.42-.91.92-.91h7.63c2.6,0,4.71-2.12,4.71-4.71v-7.61c0-.5.42-.91.92-.91h7.58c.5,0,.92.42.92.91v7.61c0,2.6,2.11,4.71,4.71,4.71h7.61c.5,0,.92.42.92.91v7.61s0,.02,0,.04c-.02.48-.43.88-.91.88h-34.09c-.5,0-.92-.42-.92-.91ZM557.19,52.03v-7.61c0-.5.42-.92.92-.92h34.08c.48,0,.87.39.9.86,0,.02,0,.03,0,.05v7.61c0,2.6,2.11,4.71,4.71,4.71h7.63c.48,0,.87.39.9.86,0,.02,0,.03,0,.05v7.69c-.04.46-.43.84-.9.84h-20.85c-.5,0-.92-.42-.92-.92v-7.61c0-2.6-2.11-4.71-4.71-4.71h-20.85c-.5,0-.92-.42-.92-.91ZM570.42,78.51v-20.84c0-.5.42-.92.92-.92h7.61c.5,0,.92.42.92.92v7.61c0,2.6,2.11,4.71,4.71,4.71h20.85c.48,0,.88.4.91.88v7.65c0,.5-.42.92-.92.92h-34.07c-.5,0-.92-.42-.92-.92ZM632.79,91.74c0,.5-.42.91-.92.91h-34.08c-.5,0-.92-.42-.92-.91v-7.61c0-.5.42-.91.92-.91h7.62c2.6,0,4.71-2.12,4.71-4.71v-7.61s0-.05,0-.08v-5.39c0-.05.02-.11.02-.16v-7.61s0-.03,0-.05c.03-.47.43-.86.9-.86h7.61c.5,0,.92.42.92.92v20.84c0,2.6,2.11,4.71,4.71,4.71h7.61c.5,0,.92.42.92.91v7.61ZM672.5,110.6v20.86c0,.5-.42.91-.92.91h-20.85c-.5,0-.92-.42-.92-.91v-7.61c0-.5.42-.91.92-.91h7.61c2.6,0,4.71-2.12,4.71-4.71h0v-7.62c0-.5.42-.92.92-.92h7.65c.48.02.88.42.88.91ZM684.82,105.89h-13.16s-.05,0-.08,0h-7.61c-2.6,0-4.71,2.11-4.71,4.71h0v7.62c0,.5-.42.92-.92.92h-7.61c-.5,0-.92-.42-.92-.92v-7.61c0-2.6-2.11-4.71-4.71-4.71h-7.61c-.5,0-.92-.42-.92-.91v-7.61c0-.5.42-.92.92-.92h47.32c.5,0,.92.42.92.92v7.61c0,.5-.42.91-.92.91ZM712.21,91.74c0,.5-.42.91-.92.91h-7.61c-2.6,0-4.71,2.12-4.71,4.71v7.61c0,.5-.42.91-.92.91h-7.61c-.5,0-.92-.42-.92-.91v-7.61c0-2.6-2.11-4.71-4.71-4.71h-7.61c-.48,0-.87-.39-.9-.86,0-.02,0-.04,0-.06v-20.93c.05-.46.43-.83.9-.83h7.61c.5,0,.92.42.92.91v7.61c0,2.6,2.12,4.71,4.71,4.71h20.84c.5,0,.92.42.92.91v7.61Z"/>
  </g>
</svg>