<svg width="36" height="36" viewBox="0 0 36 36" fill="none" xmlns="http://www.w3.org/2000/svg">
<path d="M33 0H3C2.20435 0 1.44129 0.31607 0.87868 0.87868C0.31607 1.44129 0 2.20435 0 3V33C0 33.7957 0.31607 34.5587 0.87868 35.1213C1.44129 35.6839 2.20435 36 3 36H33C33.7957 36 34.5587 35.6839 35.1213 35.1213C35.6839 34.5587 36 33.7957 36 33V3C36 2.20435 35.6839 1.44129 35.1213 0.87868C34.5587 0.31607 33.7957 0 33 0ZM33 33H3V3H33V33ZM20.25 9V27C20.25 27.3978 20.092 27.7794 19.8107 28.0607C19.5294 28.342 19.1478 28.5 18.75 28.5C18.3522 28.5 17.9706 28.342 17.6893 28.0607C17.408 27.7794 17.25 27.3978 17.25 27V11.8125L15.0825 13.2581C14.9185 13.3675 14.7346 13.4434 14.5413 13.4817C14.3479 13.5199 14.1489 13.5197 13.9557 13.481C13.7624 13.4424 13.5786 13.366 13.4149 13.2564C13.2511 13.1467 13.1106 13.0059 13.0012 12.8419C12.8919 12.6779 12.816 12.494 12.7777 12.3006C12.7395 12.1073 12.7397 11.9083 12.7783 11.715C12.817 11.5218 12.8933 11.338 13.003 11.1743C13.1127 11.0105 13.2535 10.87 13.4175 10.7606L17.9175 7.76062C18.1428 7.61031 18.4046 7.52379 18.6751 7.51026C18.9456 7.49673 19.2147 7.55668 19.4539 7.68377C19.693 7.81085 19.8933 8.00032 20.0335 8.23206C20.1737 8.4638 20.2485 8.72917 20.25 9Z" fill="#2B2B2B"/>
</svg>
