<svg width="36" height="36" viewBox="0 0 36 36" fill="none" xmlns="http://www.w3.org/2000/svg">
<path d="M33 0H3C2.20435 0 1.44129 0.31607 0.87868 0.87868C0.31607 1.44129 0 2.20435 0 3V33C0 33.7957 0.31607 34.5587 0.87868 35.1213C1.44129 35.6839 2.20435 36 3 36H33C33.7957 36 34.5587 35.6839 35.1213 35.1213C35.6839 34.5587 36 33.7957 36 33V3C36 2.20435 35.6839 1.44129 35.1213 0.87868C34.5587 0.31607 33.7957 0 33 0ZM33 33H3V3H33V33ZM24 27C24 27.3978 23.842 27.7794 23.5607 28.0607C23.2794 28.342 22.8978 28.5 22.5 28.5H13.5C13.2214 28.5 12.9484 28.4224 12.7114 28.276C12.4744 28.1295 12.2829 27.92 12.1584 27.6708C12.0338 27.4217 11.981 27.1427 12.0061 26.8653C12.0311 26.5878 12.1329 26.3229 12.3 26.1L20.3944 15.3075C20.6536 14.9621 20.8351 14.5648 20.9266 14.1428C21.0182 13.7208 21.0175 13.284 20.9247 12.8623C20.8319 12.4405 20.6492 12.0438 20.389 11.6992C20.1288 11.3545 19.7972 11.0702 19.417 10.8654C19.0368 10.6607 18.6168 10.5405 18.1859 10.513C17.7549 10.4855 17.3231 10.5514 16.92 10.7061C16.5168 10.8608 16.1518 11.1007 15.8499 11.4095C15.548 11.7182 15.3163 12.0885 15.1706 12.495C15.0379 12.8702 14.7615 13.1773 14.4023 13.3487C14.0431 13.5201 13.6305 13.5418 13.2553 13.4091C12.8801 13.2763 12.573 12.9999 12.4016 12.6407C12.2302 12.2815 12.2085 11.8689 12.3412 11.4938C12.5472 10.9163 12.8392 10.3733 13.2075 9.88313C13.6817 9.25389 14.2753 8.72422 14.9542 8.32436C15.6331 7.92451 16.3842 7.66229 17.1645 7.55269C17.9447 7.44309 18.7389 7.48824 19.5018 7.68558C20.2646 7.88292 20.9811 8.22858 21.6103 8.70281C22.2395 9.17705 22.7692 9.77058 23.1691 10.4495C23.5689 11.1285 23.8311 11.8795 23.9407 12.6598C24.0504 13.44 24.0052 14.2343 23.8079 14.9971C23.6105 15.7599 23.2649 16.4764 22.7906 17.1056L16.5 25.5H22.5C22.8978 25.5 23.2794 25.658 23.5607 25.9393C23.842 26.2206 24 26.6022 24 27Z" fill="#2B2B2B"/>
</svg>
