<svg width="36" height="36" viewBox="0 0 36 36" fill="none" xmlns="http://www.w3.org/2000/svg">
<path d="M33 0H3C2.20435 0 1.44129 0.31607 0.87868 0.87868C0.31607 1.44129 0 2.20435 0 3V33C0 33.7957 0.31607 34.5587 0.87868 35.1213C1.44129 35.6839 2.20435 36 3 36H33C33.7957 36 34.5587 35.6839 35.1213 35.1213C35.6839 34.5587 36 33.7957 36 33V3C36 2.20435 35.6839 1.44129 35.1213 0.87868C34.5587 0.31607 33.7957 0 33 0ZM33 33H3V3H33V33ZM24 21.75C23.9997 23.0906 23.6001 24.4008 22.8523 25.5135C22.1044 26.6262 21.0422 27.491 19.801 27.9977C18.5598 28.5043 17.1958 28.6299 15.8829 28.3584C14.5701 28.0869 13.3678 27.4306 12.4294 26.4731C12.2828 26.3345 12.1657 26.1677 12.0851 25.9827C12.0045 25.7977 11.9621 25.5984 11.9603 25.3966C11.9585 25.1949 11.9975 24.9948 12.0748 24.8085C12.1521 24.6221 12.2663 24.4533 12.4104 24.3121C12.5545 24.1709 12.7256 24.0602 12.9135 23.9866C13.1014 23.9131 13.3022 23.8782 13.5039 23.8841C13.7056 23.89 13.904 23.9365 14.0873 24.0208C14.2706 24.1052 14.435 24.2256 14.5706 24.375C15.0034 24.8165 15.5386 25.1442 16.1286 25.3288C16.7186 25.5135 17.3451 25.5494 17.9523 25.4334C18.5596 25.3174 19.1287 25.0531 19.6091 24.6639C20.0895 24.2748 20.4662 23.7729 20.7057 23.203C20.9453 22.6331 21.0402 22.0127 20.982 21.3973C20.9239 20.7818 20.7145 20.1902 20.3724 19.6752C20.0304 19.1603 19.5663 18.7378 19.0216 18.4456C18.4768 18.1533 17.8682 18.0002 17.25 18C16.9756 17.9999 16.7065 17.9246 16.4719 17.7822C16.2374 17.6397 16.0464 17.4357 15.9197 17.1923C15.7931 16.9489 15.7356 16.6754 15.7537 16.4016C15.7717 16.1277 15.8644 15.8641 16.0219 15.6394L19.6181 10.5H13.5C13.1022 10.5 12.7206 10.342 12.4393 10.0607C12.158 9.77936 12 9.39782 12 9C12 8.60218 12.158 8.22064 12.4393 7.93934C12.7206 7.65804 13.1022 7.5 13.5 7.5H22.5C22.7744 7.50008 23.0435 7.57542 23.2781 7.71784C23.5126 7.86025 23.7036 8.06428 23.8303 8.3077C23.9569 8.55113 24.0144 8.82464 23.9963 9.09845C23.9783 9.37226 23.8856 9.63588 23.7281 9.86062L19.7906 15.4856C21.0354 15.9932 22.1006 16.8603 22.8504 17.976C23.6002 19.0918 24.0004 20.4057 24 21.75Z" fill="#2B2B2B"/>
</svg>
