<svg width="36" height="36" viewBox="0 0 36 36" fill="none" xmlns="http://www.w3.org/2000/svg">
<path d="M33 0H3C2.20435 0 1.44129 0.31607 0.87868 0.87868C0.31607 1.44129 0 2.20435 0 3V33C0 33.7957 0.31607 34.5587 0.87868 35.1213C1.44129 35.6839 2.20435 36 3 36H33C33.7957 36 34.5587 35.6839 35.1213 35.1213C35.6839 34.5587 36 33.7957 36 33V3C36 2.20435 35.6839 1.44129 35.1213 0.87868C34.5587 0.31607 33.7957 0 33 0ZM33 33H3V3H33V33ZM25.5 21C25.5 21.3978 25.342 21.7794 25.0607 22.0607C24.7794 22.342 24.3978 22.5 24 22.5H22.5V27C22.5 27.3978 22.342 27.7794 22.0607 28.0607C21.7794 28.342 21.3978 28.5 21 28.5C20.6022 28.5 20.2206 28.342 19.9393 28.0607C19.658 27.7794 19.5 27.3978 19.5 27V22.5H12C11.7623 22.5 11.528 22.4435 11.3164 22.3352C11.1049 22.2269 10.922 22.0699 10.783 21.8771C10.6441 21.6843 10.5529 21.4612 10.517 21.2262C10.4812 20.9912 10.5017 20.7511 10.5769 20.5256L15.0769 7.02563C15.2027 6.64819 15.4733 6.33619 15.8291 6.15826C16.185 5.98034 16.5969 5.95106 16.9744 6.07688C17.3518 6.20269 17.6638 6.47328 17.8417 6.82913C18.0197 7.18498 18.0489 7.59694 17.9231 7.97437L14.0812 19.5H19.5V15C19.5 14.6022 19.658 14.2206 19.9393 13.9393C20.2206 13.658 20.6022 13.5 21 13.5C21.3978 13.5 21.7794 13.658 22.0607 13.9393C22.342 14.2206 22.5 14.6022 22.5 15V19.5H24C24.3978 19.5 24.7794 19.658 25.0607 19.9393C25.342 20.2206 25.5 20.6022 25.5 21Z" fill="#2B2B2B"/>
</svg>
