<svg width="36" height="36" viewBox="0 0 36 36" fill="none" xmlns="http://www.w3.org/2000/svg">
<path d="M33 0H3C2.20435 0 1.44129 0.31607 0.87868 0.87868C0.31607 1.44129 0 2.20435 0 3V33C0 33.7957 0.31607 34.5587 0.87868 35.1213C1.44129 35.6839 2.20435 36 3 36H33C33.7957 36 34.5587 35.6839 35.1213 35.1213C35.6839 34.5587 36 33.7957 36 33V3C36 2.20435 35.6839 1.44129 35.1213 0.87868C34.5587 0.31607 33.7957 0 33 0ZM33 33H3V3H33V33ZM16.2712 10.5L15.4856 15.2137C16.0628 15.0707 16.6553 14.9989 17.25 15C19.0402 15 20.7571 15.7112 22.023 16.977C23.2888 18.2429 24 19.9598 24 21.75C24 23.5402 23.2888 25.2571 22.023 26.523C20.7571 27.7888 19.0402 28.5 17.25 28.5C16.3568 28.5147 15.4698 28.3496 14.6416 28.0146C13.8135 27.6796 13.0612 27.1816 12.4294 26.55C12.286 26.4106 12.172 26.2439 12.094 26.0598C12.016 25.8757 11.9756 25.6778 11.9751 25.4778C11.9747 25.2778 12.0143 25.0798 12.0915 24.8953C12.1687 24.7109 12.2821 24.5437 12.4248 24.4037C12.5676 24.2637 12.7369 24.1536 12.9229 24.08C13.1088 24.0064 13.3075 23.9707 13.5075 23.975C13.7074 23.9793 13.9044 24.0235 14.087 24.1051C14.2696 24.1867 14.434 24.304 14.5706 24.45C14.9244 24.7951 15.3438 25.0659 15.804 25.2462C16.2642 25.4266 16.7559 25.5129 17.25 25.5C18.2446 25.5 19.1984 25.1049 19.9016 24.4016C20.6049 23.6984 21 22.7446 21 21.75C21 20.7554 20.6049 19.8016 19.9016 19.0984C19.1984 18.3951 18.2446 18 17.25 18C16.7559 17.9871 16.2642 18.0734 15.804 18.2538C15.3438 18.4341 14.9244 18.7049 14.5706 19.05C14.3472 19.2776 14.0569 19.4281 13.7421 19.4796C13.4273 19.531 13.1043 19.4807 12.82 19.3361C12.5357 19.1914 12.3049 18.9599 12.1611 18.6751C12.0174 18.3903 11.9682 18.0672 12.0206 17.7525L13.5206 8.7525C13.5792 8.40246 13.76 8.08452 14.0308 7.8552C14.3017 7.62587 14.6451 7.50002 15 7.5H22.5C22.8978 7.5 23.2794 7.65804 23.5607 7.93934C23.842 8.22064 24 8.60218 24 9C24 9.39782 23.842 9.77936 23.5607 10.0607C23.2794 10.342 22.8978 10.5 22.5 10.5H16.2712Z" fill="#2B2B2B"/>
</svg>
