<svg width="36" height="36" viewBox="0 0 36 36" fill="none" xmlns="http://www.w3.org/2000/svg">
<path d="M33 0H3C2.20435 0 1.44129 0.31607 0.87868 0.87868C0.31607 1.44129 0 2.20435 0 3V33C0 33.7957 0.31607 34.5587 0.87868 35.1213C1.44129 35.6839 2.20435 36 3 36H33C33.7957 36 34.5587 35.6839 35.1213 35.1213C35.6839 34.5587 36 33.7957 36 33V3C36 2.20435 35.6839 1.44129 35.1213 0.87868C34.5587 0.31607 33.7957 0 33 0ZM33 33H3V3H33V33ZM18 15C17.8856 15 17.7712 15 17.6588 15L20.7881 9.76875C20.8891 9.59959 20.9557 9.4122 20.9843 9.21729C21.0128 9.02237 21.0027 8.82374 20.9544 8.63275C20.9062 8.44175 20.8208 8.26212 20.7032 8.10411C20.5855 7.94611 20.4379 7.81283 20.2688 7.71187C20.0996 7.61092 19.9122 7.54427 19.7173 7.51574C19.5224 7.48721 19.3237 7.49734 19.1327 7.54557C18.9417 7.5938 18.7621 7.67917 18.6041 7.79682C18.4461 7.91447 18.3128 8.06209 18.2119 8.23125L12.1688 18.3562C11.4211 19.6416 11.1189 21.1379 11.3089 22.6127C11.499 24.0875 12.1707 25.4582 13.2197 26.5121C14.2688 27.5659 15.6365 28.2439 17.1104 28.4406C18.5843 28.6374 20.0819 28.342 21.3707 27.6002C22.6595 26.8584 23.6672 25.7119 24.2375 24.3386C24.8077 22.9653 24.9085 21.4421 24.5243 20.0056C24.14 18.5692 23.2921 17.2998 22.1124 16.3946C20.9326 15.4895 19.487 14.9992 18 15ZM18 25.5C17.2583 25.5 16.5333 25.2801 15.9166 24.868C15.2999 24.456 14.8193 23.8703 14.5355 23.1851C14.2516 22.4998 14.1774 21.7458 14.3221 21.0184C14.4667 20.291 14.8239 19.6228 15.3483 19.0984C15.8728 18.5739 16.541 18.2167 17.2684 18.0721C17.9958 17.9274 18.7498 18.0016 19.4351 18.2855C20.1203 18.5693 20.706 19.0499 21.118 19.6666C21.5301 20.2833 21.75 21.0083 21.75 21.75C21.75 22.7446 21.3549 23.6984 20.6516 24.4016C19.9484 25.1049 18.9946 25.5 18 25.5Z" fill="#2B2B2B"/>
</svg>
