<svg width="49" height="48" viewBox="0 0 49 48" fill="none" xmlns="http://www.w3.org/2000/svg">
<path opacity="0.2" d="M41 9V39C41 39.3978 40.842 39.7794 40.5607 40.0607C40.2794 40.342 39.8978 40.5 39.5 40.5H9.5C9.10218 40.5 8.72064 40.342 8.43934 40.0607C8.15804 39.7794 8 39.3978 8 39V9C8 8.60218 8.15804 8.22064 8.43934 7.93934C8.72064 7.65804 9.10218 7.5 9.5 7.5H39.5C39.8978 7.5 40.2794 7.65804 40.5607 7.93934C40.842 8.22064 41 8.60218 41 9Z" fill="#5E7962"/>
<path d="M33.0613 18.4387C33.2007 18.5781 33.3114 18.7435 33.3868 18.9256C33.4623 19.1077 33.5012 19.3029 33.5012 19.5C33.5012 19.6971 33.4623 19.8923 33.3868 20.0744C33.3114 20.2565 33.2007 20.4219 33.0613 20.5613L22.5613 31.0613C22.4219 31.2007 22.2565 31.3114 22.0744 31.3868C21.8923 31.4623 21.6971 31.5012 21.5 31.5012C21.3029 31.5012 21.1077 31.4623 20.9256 31.3868C20.7435 31.3114 20.5781 31.2007 20.4387 31.0613L15.9387 26.5613C15.6573 26.2798 15.4992 25.898 15.4992 25.5C15.4992 25.102 15.6573 24.7202 15.9387 24.4387C16.2202 24.1573 16.602 23.9992 17 23.9992C17.398 23.9992 17.7798 24.1573 18.0613 24.4387L21.5 27.8794L30.9387 18.4387C31.0781 18.2993 31.2435 18.1886 31.4256 18.1132C31.6077 18.0377 31.8029 17.9988 32 17.9988C32.1971 17.9988 32.3923 18.0377 32.5744 18.1132C32.7565 18.1886 32.9219 18.2993 33.0613 18.4387ZM42.5 9V39C42.5 39.7957 42.1839 40.5587 41.6213 41.1213C41.0587 41.6839 40.2957 42 39.5 42H9.5C8.70435 42 7.94129 41.6839 7.37868 41.1213C6.81607 40.5587 6.5 39.7957 6.5 39V9C6.5 8.20435 6.81607 7.44129 7.37868 6.87868C7.94129 6.31607 8.70435 6 9.5 6H39.5C40.2957 6 41.0587 6.31607 41.6213 6.87868C42.1839 7.44129 42.5 8.20435 42.5 9ZM39.5 39V9H9.5V39H39.5Z" fill="#2B2B2B"/>
</svg>
