<?xml version="1.0" encoding="UTF-8"?>
<svg id="Layer_2" data-name="Layer 2" xmlns="http://www.w3.org/2000/svg" viewBox="0 0 525.21 439.79">
  <defs>
    <style>
      .cls-1 {
        fill: #eee;
        stroke-width: 0px;
      }
    </style>
  </defs>
  <g id="Layer_1-2" data-name="Layer 1">
    <path class="cls-1" d="M525.21,143.47c0-8.39-6.83-15.22-15.22-15.22h-24.57c-1.01,0-2,.11-2.96.3v-27.83c0-8.39-6.83-15.22-15.22-15.22h-27.83c.19-.96.3-1.94.3-2.96v-24.57c0-8.39-6.83-15.22-15.22-15.22h-24.57c-1.6,0-2.96-1.35-2.96-2.96V15.22c0-8.39-6.83-15.22-15.22-15.22h-67.32c-3.43,0-6.56,1.18-9.11,3.1-2.55-1.92-5.68-3.1-9.11-3.1h-67.32c-3.41,0-6.53,1.17-9.08,3.08-2.54-1.91-5.66-3.08-9.08-3.08h-24.57c-8.39,0-15.22,6.83-15.22,15.22v24.57c0,1.6-1.36,2.96-2.96,2.96h-24.57c-3.42,0-6.55,1.18-9.1,3.09-2.55-1.92-5.67-3.09-9.1-3.09h-24.48c-8.39,0-15.22,6.83-15.22,15.22v24.57c0,1.6-1.36,2.96-2.96,2.96h-24.63c-8.39,0-15.22,6.83-15.22,15.22v24.57c0,1.01.11,2,.3,2.95H15.22c-8.39,0-15.22,6.83-15.22,15.22v24.57c0,8.39,6.83,15.22,15.22,15.22h27.8c-.19.96-.3,1.94-.3,2.96v67.32c0,8.39,6.83,15.22,15.22,15.22h70.55c-.19.96-.3,1.94-.3,2.95v24.57c0,8.39,6.83,15.22,15.22,15.22h110.07c1.15,0,2.26-.15,3.33-.39-.24,1.08-.4,2.2-.4,3.35v24.57c0,8.39,6.83,15.22,15.22,15.22h24.57c1.6,0,2.96,1.35,2.96,2.96v24.57c0,3.43,1.18,6.56,3.09,9.1-1.92,2.55-3.09,5.68-3.09,9.1v24.57c0,8.39,6.83,15.22,15.22,15.22h67.32c8.39,0,15.22-6.83,15.22-15.22v-67.38c0-1-.11-1.98-.3-2.93h27.83c3.42,0,6.55-1.18,9.09-3.09,2.54,1.91,5.67,3.09,9.09,3.09h24.57c8.39,0,15.22-6.83,15.22-15.22v-24.57c0-1.6,1.36-2.96,2.96-2.96h24.57c8.4,0,15.22-6.83,15.22-15.22v-24.57c0-3.41-1.17-6.53-3.07-9.07,1.92-2.55,3.1-5.68,3.1-9.11v-110.07ZM485.42,140.52h24.57c1.63,0,2.96,1.33,2.96,2.96v110.07c0,1.63-1.33,2.96-2.96,2.96h-67.32c-1.63,0-2.96-1.33-2.96-2.96v-24.57c0-1.63,1.33-2.95,2.96-2.95h24.57c8.39,0,15.22-6.83,15.22-15.22v-67.32c0-1.63,1.33-2.96,2.96-2.96ZM470.19,100.72v110.07c0,1.63-1.33,2.96-2.96,2.96h-67.32c-1.59,0-2.88-1.27-2.93-2.85v-24.78c.06-1.58,1.34-2.85,2.93-2.85h24.6c8.39,0,15.22-6.83,15.22-15.22v-24.57c0-8.39-6.83-15.22-15.22-15.22h-24.6c-1.63,0-2.96-1.33-2.96-2.95v-24.57c0-1.6,1.36-2.95,2.96-2.95h67.32c1.63,0,2.96,1.33,2.96,2.95ZM268.74,296.29v-24.57c0-8.39-6.83-15.22-15.22-15.22h-24.57c-1.6,0-2.96-1.35-2.96-2.96v-67.32c0-1.6,1.36-2.96,2.96-2.96h24.57c1.55,0,2.84,1.27,2.93,2.8v24.73c0,8.39,6.83,15.22,15.22,15.22h24.57s.03,0,.05,0c1.59,0,2.94,1.35,2.94,2.95v24.57c0,8.39,6.83,15.22,15.22,15.22h24.57c1.6,0,2.96,1.35,2.96,2.95v24.57c0,1.6-1.36,2.95-2.96,2.95h-67.32c-1.6,0-2.96-1.35-2.96-2.95ZM168.04,171h-24.57c-1.6,0-2.96-1.35-2.96-2.95v-24.57c0-.06-.02-.11-.02-.17.1-1.52,1.38-2.79,2.92-2.79h67.32c8.39,0,15.22-6.83,15.22-15.22v-24.57c0-1.6,1.36-2.95,2.96-2.95h24.57c1.6,0,2.96,1.35,2.96,2.95v70.28h-88.4ZM314.42,213.75c-1.63,0-2.96-1.33-2.96-2.96v-24.57c0-1.63,1.33-2.96,2.96-2.96h24.57c1.63,0,2.96,1.33,2.96,2.96v24.57c0,1.63-1.33,2.96-2.96,2.96h-24.57ZM271.64,97.77h24.57c1.6,0,2.96,1.35,2.96,2.95v24.57c0,3.16.97,6.09,2.62,8.53,2.74,4.06,7.37,6.74,12.63,6.74h24.57c1.6,0,2.96,1.35,2.96,2.96v24.48c0,1.6-1.36,2.95-2.96,2.95h-24.57c-8.39,0-15.22,6.83-15.22,15.22v24.62h0c0,1.6-1.34,2.94-2.92,2.96,0,0,0,0,0,0h-24.57c-1.6,0-2.96-1.35-2.96-2.96v-24.57c0-.11-.03-.21-.03-.31v-85.19c0-1.59,1.33-2.92,2.92-2.95,0,0,0,0,.01,0ZM354.23,296.29v-24.57c0-8.39-6.83-15.22-15.22-15.22h-24.57c-1.6,0-2.96-1.35-2.96-2.96v-24.57c0-1.63,1.33-2.95,2.96-2.95h24.57c8.39,0,15.22-6.83,15.22-15.22v-67.32c0-1.63,1.33-2.96,2.96-2.96h24.57c1.63,0,2.96,1.33,2.96,2.96v42.54c0,.07-.02.14-.02.21v24.57c0,.07.02.14.02.21v17.4c0,.19-.06.38-.06.57v67.32c0,.07.02.13.02.19-.1,1.53-1.35,2.76-2.92,2.76h-24.57c-1.63,0-2.96-1.33-2.96-2.95ZM427.45,143.47v24.57c0,1.63-1.33,2.95-2.96,2.95h-24.55c-1.63,0-2.96-1.33-2.96-2.95v-24.57c0-1.63,1.33-2.96,2.96-2.96h24.55c1.63,0,2.96,1.33,2.96,2.96ZM311.46,15.22c0-1.6,1.36-2.96,2.96-2.96h67.32c1.6,0,2.96,1.35,2.96,2.96v24.57c0,8.39,6.83,15.22,15.22,15.22h24.57c1.6,0,2.96,1.35,2.96,2.95v24.57c0,1.6-1.36,2.96-2.96,2.96h-24.57c-8.39,0-15.22,6.83-15.22,15.22v24.57c0,1.6-1.36,2.95-2.96,2.95h-24.57c-1.6,0-2.96-1.35-2.96-2.95V57.97c0-8.39-6.83-15.22-15.22-15.22h-24.57c-1.6,0-2.96-1.35-2.96-2.96V15.22ZM228.89,12.27h67.32c1.6,0,2.96,1.35,2.96,2.96v24.57c0,8.39,6.83,15.22,15.22,15.22h24.57c1.6,0,2.96,1.35,2.96,2.95v67.32c0,1.6-1.36,2.95-2.96,2.95h-24.57c-.8,0-1.54-.34-2.08-.87-.52-.53-.85-1.25-.85-2.03v-24.63c0-8.39-6.83-15.22-15.22-15.22h-24.57s-.04,0-.06,0c-1.56-.01-2.88-1.32-2.92-2.88,0-.02,0-.04,0-.07v-24.57c0-8.39-6.83-15.22-15.22-15.22h-24.57c-1.6,0-2.96-1.35-2.96-2.96V15.22s0-.04,0-.07c.04-1.57,1.37-2.89,2.94-2.89ZM140.46,57.97c0-1.6,1.36-2.95,2.96-2.95h24.57c8.39,0,15.22-6.83,15.22-15.22V15.22c0-1.6,1.36-2.96,2.96-2.96h24.57c1.57,0,2.9,1.32,2.94,2.89,0,.02,0,.04,0,.07v24.57c0,8.39,6.83,15.22,15.22,15.22h24.57c1.6,0,2.96,1.35,2.96,2.95v24.57s0,.04,0,.07c-.04,1.57-1.37,2.89-2.94,2.89h-24.57c-8.39,0-15.22,6.83-15.22,15.22v24.57c0,1.6-1.36,2.95-2.96,2.95h-24.57c-1.56,0-2.86-1.29-2.93-2.83,0-.04.01-.08.01-.12v-24.57c0-8.39-6.83-15.22-15.22-15.22h-24.61c-1.6,0-2.96-1.35-2.96-2.96v-24.57ZM54.97,125.29v-24.57c0-1.6,1.36-2.95,2.96-2.95h24.63c8.39,0,15.22-6.83,15.22-15.22v-24.57c0-1.6,1.36-2.95,2.96-2.95h24.48c1.6,0,2.96,1.35,2.96,2.95v24.57c0,8.39,6.83,15.22,15.22,15.22h24.59c1.6,0,2.96,1.35,2.96,2.95v24.57s.01.08.01.12c-.07,1.55-1.37,2.83-2.93,2.83H57.93c-1.6,0-2.96-1.35-2.96-2.95ZM12.26,168.04v-24.57c0-1.6,1.36-2.96,2.96-2.96h110.07c1.54,0,2.82,1.26,2.92,2.79,0,.06-.02.11-.02.17v24.57c0,8.39,6.83,15.22,15.22,15.22h24.63c1.54,0,2.82,1.26,2.92,2.79,0,.06-.02.11-.02.17v24.82c-.14,1.48-1.39,2.7-2.9,2.7h-67.32c-1.6,0-2.96-1.35-2.96-2.96v-24.57c0-8.39-6.83-15.22-15.22-15.22H15.22c-1.6,0-2.96-1.35-2.96-2.95ZM54.99,253.54v-67.32c0-1.6,1.36-2.96,2.96-2.96h24.57c1.6,0,2.96,1.35,2.96,2.96v24.57c0,8.39,6.83,15.22,15.22,15.22h67.32c1.55,0,2.86,1.28,2.93,2.83v24.7c0,1.6-1.36,2.96-2.96,2.96H57.94c-1.6,0-2.96-1.35-2.96-2.96ZM256.44,296.29c0,1.6-1.36,2.95-2.96,2.95h-110.07c-1.6,0-2.96-1.35-2.96-2.95v-24.57c0-1.6,1.36-2.95,2.96-2.95h24.6c8.39,0,15.22-6.83,15.22-15.22v-24.57c0-.09-.02-.17-.03-.26v-17.4c0-.18.05-.34.05-.52v-24.57c0-.06-.02-.11-.02-.17.1-1.52,1.38-2.79,2.92-2.79h24.57c1.6,0,2.96,1.35,2.96,2.96v67.32c0,8.39,6.83,15.22,15.22,15.22h24.57c1.6,0,2.96,1.35,2.96,2.95v24.57ZM384.66,357.19v67.38c0,1.6-1.36,2.95-2.96,2.95h-67.32c-1.6,0-2.96-1.35-2.96-2.95v-24.57c0-1.6,1.36-2.95,2.96-2.95h24.57c8.39,0,15.22-6.83,15.22-15.22v-24.6c0-1.6,1.36-2.96,2.96-2.96h24.7c1.54.07,2.83,1.37,2.83,2.93ZM424.45,341.99h-42.49c-.09,0-.17-.03-.26-.03h-24.57c-8.39,0-15.22,6.83-15.22,15.22v24.6c0,1.6-1.36,2.96-2.96,2.96h-24.57c-1.6,0-2.96-1.35-2.96-2.96v-24.57c0-8.39-6.83-15.22-15.22-15.22h-24.57c-1.6,0-2.96-1.35-2.96-2.95v-24.57c0-1.6,1.36-2.96,2.96-2.96h152.82c1.6,0,2.96,1.35,2.96,2.96v24.57c0,1.6-1.36,2.95-2.96,2.95ZM512.91,296.29c0,1.6-1.36,2.95-2.96,2.95h-24.57c-8.39,0-15.22,6.83-15.22,15.22v24.57c0,1.6-1.36,2.95-2.96,2.95h-24.57c-1.6,0-2.96-1.35-2.96-2.95v-24.57c0-8.39-6.83-15.22-15.22-15.22h-24.57c-1.54,0-2.82-1.25-2.92-2.77,0-.06.02-.12.02-.19v-67.6c.15-1.47,1.4-2.68,2.9-2.68h24.57c1.6,0,2.96,1.35,2.96,2.95v24.57c0,8.39,6.83,15.22,15.22,15.22h67.32c1.6,0,2.96,1.35,2.96,2.95v24.57Z"/>
  </g>
</svg>